<?xml version="1.0" encoding="UTF-8"?>
<svg version="1.1" xmlns="http://www.w3.org/2000/svg" width="16" height="16">
<path d="M0 0 C3.37913601 -0.28529291 6.62978743 -0.43346785 10 0 C12.1875 2.1875 12.1875 2.1875 13 5 C12.7470837 8.45652273 11.56428308 10.95511977 10 14 C6.62086399 14.28529291 3.37021257 14.43346785 0 14 C-2.1875 11.8125 -2.1875 11.8125 -3 9 C-2.7470837 5.54347727 -1.56428308 3.04488023 0 0 Z M4 5 C4 6.32 4 7.64 4 9 C4.99 8.67 5.98 8.34 7 8 C6.67 7.01 6.34 6.02 6 5 C5.34 5 4.68 5 4 5 Z " fill="#000000" transform="translate(3,1)"/>
</svg>
