<?xml version="1.0" encoding="UTF-8"?>
<!DOCTYPE svg PUBLIC "-//W3C//DTD SVG 1.1//EN" "http://www.w3.org/Graphics/SVG/1.1/DTD/svg11.dtd">
<svg xmlns="http://www.w3.org/2000/svg" version="1.1" width="16px" height="16px" style="shape-rendering:geometricPrecision; text-rendering:geometricPrecision; image-rendering:optimizeQuality; fill-rule:evenodd; clip-rule:evenodd" xmlns:xlink="http://www.w3.org/1999/xlink">
<g><path style="opacity:0.8" fill="#4484ee" d="M 3.5,-0.5 C 5.5,-0.5 7.5,-0.5 9.5,-0.5C 8.83333,0.5 8.16667,1.5 7.5,2.5C 6.83333,2.83333 6.16667,3.16667 5.5,3.5C 4.83333,2.5 4.16667,1.5 3.5,0.5C 3.5,0.166667 3.5,-0.166667 3.5,-0.5 Z"/></g>
<g><path style="opacity:1" fill="#4b8bf4" d="M 9.5,-0.5 C 10.1667,-0.5 10.8333,-0.5 11.5,-0.5C 12.1098,0.391047 12.4431,1.39105 12.5,2.5C 11.8333,3.83333 10.8333,4.83333 9.5,5.5C 9.57298,3.97306 8.90632,2.97306 7.5,2.5C 8.16667,1.5 8.83333,0.5 9.5,-0.5 Z"/></g>
<g><path style="opacity:0.824" fill="#ed3f05" d="M 3.5,0.5 C 4.16667,1.5 4.83333,2.5 5.5,3.5C 5.5,3.83333 5.5,4.16667 5.5,4.5C 4.16667,5.5 2.83333,6.5 1.5,7.5C 1.17057,4.77183 1.83724,2.4385 3.5,0.5 Z"/></g>
<g><path style="opacity:0.999" fill="#18aa6d" d="M 12.5,2.5 C 13.6225,4.28841 13.7891,6.28841 13,8.5C 11.2502,10.7343 9.75017,13.0676 8.5,15.5C 8.16667,15.5 7.83333,15.5 7.5,15.5C 7.5,13.1667 7.5,10.8333 7.5,8.5C 7.5,8.16667 7.5,7.83333 7.5,7.5C 8.5,7.16667 9.16667,6.5 9.5,5.5C 10.8333,4.83333 11.8333,3.83333 12.5,2.5 Z"/></g>
<g><path style="opacity:0.95" fill="#fed72c" d="M 5.5,4.5 C 5.42702,6.02694 6.09368,7.02694 7.5,7.5C 7.5,7.83333 7.5,8.16667 7.5,8.5C 6.16667,9.16667 5.16667,10.1667 4.5,11.5C 3.02561,10.5637 2.02561,9.23033 1.5,7.5C 2.83333,6.5 4.16667,5.5 5.5,4.5 Z"/></g>
<g><path style="opacity:0.841" fill="#68c465" d="M 7.5,8.5 C 7.5,10.8333 7.5,13.1667 7.5,15.5C 7.16667,15.5 6.83333,15.5 6.5,15.5C 6.26714,13.9382 5.60048,12.6049 4.5,11.5C 5.16667,10.1667 6.16667,9.16667 7.5,8.5 Z"/></g>
</svg>
