<?xml version="1.0" encoding="UTF-8"?>
<svg version="1.1" xmlns="http://www.w3.org/2000/svg" width="16" height="16">
<path d="M0 0 C0.495 0.33 0.99 0.66 1.5 1 C1.9375 4.0625 1.9375 4.0625 1.5 8 C-0.55546504 10.66849847 -2.92480469 12.83867536 -5.5 15 C-9.30705564 13.20222373 -11.83442088 11.3319739 -14.5 8 C-14.8125 4.1875 -14.8125 4.1875 -14.5 1 C-10.13338636 -1.91107576 -4.77017978 -1.90807191 0 0 Z M-10.5 1 C-11.49 1.495 -11.49 1.495 -12.5 2 C-12.91986946 4.28836222 -12.91986946 4.28836222 -12.5 7 C-10.10416349 9.81331378 -10.10416349 9.81331378 -7.5 12 C-4.63904359 10.7175023 -2.38634082 9.54656011 -0.5 7 C-0.24930087 4.37429296 -0.24930087 4.37429296 -0.5 2 C-3.83008975 0.88997008 -5.15983176 1.31483728 -8.5 2 C-9.16 1.67 -9.82 1.34 -10.5 1 Z " fill="#000000" transform="translate(14.5,1)"/>
</svg>
