<?xml version="1.0" encoding="UTF-8"?>
<!DOCTYPE svg PUBLIC "-//W3C//DTD SVG 1.1//EN" "http://www.w3.org/Graphics/SVG/1.1/DTD/svg11.dtd">
<svg xmlns="http://www.w3.org/2000/svg" version="1.1" width="16px" height="16px" style="shape-rendering:geometricPrecision; text-rendering:geometricPrecision; image-rendering:optimizeQuality; fill-rule:evenodd; clip-rule:evenodd" xmlns:xlink="http://www.w3.org/1999/xlink">
<g><path style="opacity:0.328" fill="#000000" d="M 15.5,2.5 C 15.5,4.83333 15.5,7.16667 15.5,9.5C 14.7611,9.36899 14.0944,9.53566 13.5,10C 14.5815,12.3064 13.7482,13.8064 11,14.5C 9.73869,14.2409 8.73869,13.5742 8,12.5C 4.80627,15.2694 1.97294,14.936 -0.5,11.5C -0.5,10.1667 -0.5,8.83333 -0.5,7.5C 1.39022,5.40988 3.05689,3.07654 4.5,0.5C 5.45795,2.62394 6.62462,4.62394 8,6.5C 8.34334,0.591338 10.8433,-0.741995 15.5,2.5 Z M 6.5,7.5 C 4.31412,7.48936 3.48078,6.48936 4,4.5C 5.04499,5.37344 5.87833,6.37344 6.5,7.5 Z"/></g>
</svg>
