<?xml version="1.0" encoding="UTF-8"?>
<!DOCTYPE svg PUBLIC "-//W3C//DTD SVG 1.1//EN" "http://www.w3.org/Graphics/SVG/1.1/DTD/svg11.dtd">
<svg xmlns="http://www.w3.org/2000/svg" version="1.1" width="32px" height="32px" style="shape-rendering:geometricPrecision; text-rendering:geometricPrecision; image-rendering:optimizeQuality; fill-rule:evenodd; clip-rule:evenodd" xmlns:xlink="http://www.w3.org/1999/xlink">
<g><path style="opacity:0.486" fill="#000000" d="M 4.5,-0.5 C 6.16667,-0.5 7.83333,-0.5 9.5,-0.5C 10.2953,6.08692 10.7953,12.7536 11,19.5C 15.2071,23.5433 15.0404,27.5433 10.5,31.5C 8.16667,31.5 5.83333,31.5 3.5,31.5C -0.219216,27.6375 -0.385882,23.6375 3,19.5C 3.20467,12.7536 3.70467,6.08692 4.5,-0.5 Z M 4.5,21.5 C 5.29533,14.9131 5.79533,8.24641 6,1.5C 6.16667,4.83333 6.33333,8.16667 6.5,11.5C 6.48638,15.2386 5.81972,18.572 4.5,21.5 Z M 5.5,23.5 C 9.86379,23.6648 10.3638,24.9981 7,27.5C 5.81181,26.4366 5.31181,25.1033 5.5,23.5 Z"/></g>
<g><path style="opacity:0.428" fill="#000000" d="M 13.5,-0.5 C 14.5,-0.5 15.5,-0.5 16.5,-0.5C 17.5377,3.45803 18.5377,3.45803 19.5,-0.5C 20.5,-0.5 21.5,-0.5 22.5,-0.5C 23.5112,3.223 24.8445,3.223 26.5,-0.5C 27.5,-0.5 28.5,-0.5 29.5,-0.5C 31.1715,2.62493 30.8382,5.45826 28.5,8C 30.9272,9.55448 30.9272,10.7211 28.5,11.5C 28.2172,10.7109 27.7172,10.0442 27,9.5C 25.6703,10.5822 24.1703,11.2488 22.5,11.5C 21.3656,9.21868 20.0322,9.21868 18.5,11.5C 17.8333,11.5 17.1667,11.5 16.5,11.5C 15.0852,9.65562 13.4185,8.98895 11.5,9.5C 11.9767,8.52242 12.6433,7.68909 13.5,7C 12.6433,6.31091 11.9767,5.47758 11.5,4.5C 12.4565,2.92464 13.1231,1.25797 13.5,-0.5 Z M 14.5,2.5 C 16.7602,3.23764 16.9269,4.23764 15,5.5C 14.5172,4.55198 14.3505,3.55198 14.5,2.5 Z M 20.5,2.5 C 22.7602,3.23764 22.9269,4.23764 21,5.5C 20.5172,4.55198 20.3505,3.55198 20.5,2.5 Z M 27.5,2.5 C 28.5735,3.25057 28.7401,4.25057 28,5.5C 26.2716,4.64767 26.105,3.64767 27.5,2.5 Z M 17.5,5.5 C 20.1247,6.46572 20.1247,7.46572 17.5,8.5C 16.4376,7.57537 16.4376,6.57537 17.5,5.5 Z M 22.5,6.5 C 26.5878,6.21844 27.0878,6.88511 24,8.5C 22.9701,8.16389 22.4701,7.49722 22.5,6.5 Z M 22.5,11.5 C 21.1667,11.5 19.8333,11.5 18.5,11.5C 20.0322,9.21868 21.3656,9.21868 22.5,11.5 Z"/></g>
<g><path style="opacity:0.367" fill="#000000" d="M 16.5,11.5 C 17.1667,12.8333 17.8333,12.8333 18.5,11.5C 19.8333,11.5 21.1667,11.5 22.5,11.5C 22.5,12.1667 22.5,12.8333 22.5,13.5C 20.847,13.6596 19.5137,14.3263 18.5,15.5C 17.8333,15.5 17.1667,15.5 16.5,15.5C 15.0852,13.6556 13.4185,12.9889 11.5,13.5C 12.6685,11.7826 14.3352,11.1159 16.5,11.5 Z"/></g>
<g><path style="opacity:0.43" fill="#000000" d="M 28.5,11.5 C 31.3818,15.421 30.8818,16.0876 27,13.5C 26.0053,14.0659 25.172,14.7326 24.5,15.5C 23.5,15.1667 22.8333,14.5 22.5,13.5C 24.2972,12.2702 26.2972,11.6036 28.5,11.5 Z"/></g>
<g><path style="opacity:0.443" fill="#000000" d="M 16.5,15.5 C 17.1667,16.8333 17.8333,16.8333 18.5,15.5C 20.7411,15.9539 22.7411,15.9539 24.5,15.5C 26.8273,15.2471 28.8273,15.9137 30.5,17.5C 30,17.8333 29.5,18.1667 29,18.5C 23.5932,17.4272 18.2599,17.4272 13,18.5C 11.513,17.7471 11.3463,16.9138 12.5,16C 13.7932,15.51 15.1266,15.3433 16.5,15.5 Z"/></g>
</svg>
