<?xml version="1.0" encoding="UTF-8"?>
<svg version="1.1" xmlns="http://www.w3.org/2000/svg" width="64" height="64">
<path d="M0 0 C1.875 1.1875 1.875 1.1875 3 3 C3.38476562 5.26831055 3.38476562 5.26831055 3 8 C1.37729093 10.05897163 -0.14807463 11.73295363 -2.03125 13.51953125 C-2.54175903 14.02296555 -3.05226807 14.52639984 -3.57824707 15.04508972 C-5.20745309 16.64636321 -6.85318749 18.22935912 -8.5 19.8125 C-9.60920927 20.89662503 -10.71729651 21.98189932 -11.82421875 23.06835938 C-14.53665169 25.72573845 -17.26403939 28.36685937 -20 31 C-18.45017265 34.75900634 -16.13715443 37.02475531 -13.2109375 39.80859375 C-12.26992188 40.72060547 -11.32890625 41.63261719 -10.359375 42.57226562 C-8.86537717 44.01041077 -7.36783413 45.44428768 -5.86230469 46.87036133 C-4.405075 48.25501508 -2.96400487 49.656613 -1.5234375 51.05859375 C-0.65638184 51.88673584 0.21067383 52.71487793 1.10400391 53.56811523 C3 56 3 56 3.35302734 58.69555664 C3 61 3 61 1.875 62.8125 C-0.98194699 64.62189976 -2.65130031 64.46204265 -6 64 C-8.62414378 62.27273631 -10.73650183 60.10452021 -12.9296875 57.8671875 C-13.56488312 57.23773224 -14.20007874 56.60827698 -14.85452271 55.95974731 C-16.19132767 54.62701905 -17.5206103 53.28670841 -18.84277344 51.93945312 C-20.86824684 49.88186025 -22.92371379 47.85821964 -24.984375 45.8359375 C-26.28057397 44.53577358 -27.57491041 43.23374959 -28.8671875 41.9296875 C-29.79046341 41.02462967 -29.79046341 41.02462967 -30.73239136 40.10128784 C-33.33338123 37.41264775 -34.82872726 35.6702546 -35.76660156 32 C-34.6348887 27.57118229 -32.07824801 25.21801237 -28.8671875 22.0703125 C-27.92300461 21.11751907 -27.92300461 21.11751907 -26.95974731 20.14547729 C-25.62701905 18.80867233 -24.28670841 17.4793897 -22.93945312 16.15722656 C-20.88186025 14.13175316 -18.85821964 12.07628621 -16.8359375 10.015625 C-15.53577358 8.71942603 -14.23374959 7.42508959 -12.9296875 6.1328125 C-12.32631561 5.51729523 -11.72294373 4.90177795 -11.10128784 4.26760864 C-7.46624055 0.75106464 -5.31327959 -0.90568364 0 0 Z " fill="#000000" transform="translate(48,0)"/>
</svg>
