<?xml version="1.0" encoding="UTF-8"?>
<svg version="1.1" xmlns="http://www.w3.org/2000/svg" width="512" height="512">
<path d="M0 0 C1.19109375 1.11375 1.19109375 1.11375 2.40625 2.25 C4.38237093 4.08695749 6.41454621 5.79061165 8.5 7.5 C35.33431009 31.10126068 50.67239481 65.98760307 57.625 100.3125 C57.8725 101.50230469 58.12 102.69210938 58.375 103.91796875 C65.80881946 147.95302428 53.54565287 192.93916051 28.625 229.3125 C27.63626015 230.65420462 26.64133954 231.99157921 25.625 233.3125 C27.27846854 237.60136537 30.50941173 240.4536511 33.71626282 243.61062622 C34.66296027 244.55459521 34.66296027 244.55459521 35.62878293 245.51763427 C37.74824144 247.62866837 39.87474593 249.73246121 42.0012207 251.83642578 C43.52094142 253.34739811 45.04018656 254.85884891 46.55899048 256.3707428 C49.83299079 259.62824047 53.1099193 262.88275406 56.38900185 266.13513565 C61.57662131 271.28141814 66.75502567 276.43690496 71.9316864 281.59420776 C86.65440977 296.2593342 101.38697099 310.91452676 116.13452148 325.5546875 C124.27754571 333.63857332 132.41153834 341.7314355 140.53579015 349.83418834 C145.6759175 354.95969678 150.82691613 360.07393878 155.98624194 365.18011785 C159.2001285 368.36619394 162.40341135 371.56276854 165.60382462 374.76237297 C167.08571425 376.23970747 168.57188353 377.71276397 170.06270027 379.1810894 C186.1493018 395.03483311 186.1493018 395.03483311 188.25390625 405.4140625 C188.06756628 412.49498137 186.922145 417.80440023 181.9765625 423.06640625 C177.27388572 427.32756534 172.88863707 429.5880069 166.4375 429.75 C165.57769531 429.78996094 164.71789062 429.82992188 163.83203125 429.87109375 C151.4393567 427.71256457 143.49467946 417.85810166 135.07763672 409.33276367 C133.53045814 407.78417324 131.98217478 406.23668591 130.43287659 404.69021606 C126.24671466 400.5054843 122.07611136 396.30555466 117.90819311 392.1026628 C113.54365773 387.70679799 109.16488817 383.3251584 104.78762817 378.94197083 C96.50826136 370.64708503 88.24171912 362.33954023 79.97974217 354.02733737 C70.57021069 344.56144865 61.14601909 335.11021911 51.72081733 325.65993536 C32.33966979 306.22657366 12.97644098 286.77544004 -6.375 267.3125 C-9.90014946 268.6700042 -12.66482778 270.10396919 -15.6875 272.375 C-33.92906135 285.32409068 -54.55263362 293.64886734 -76.375 298.3125 C-77.13119629 298.47621094 -77.88739258 298.63992188 -78.66650391 298.80859375 C-121.67018584 307.6825149 -168.08369984 298.38687219 -204.71826172 274.42431641 C-243.39369255 248.46971693 -270.63903924 209.56306386 -279.8034668 163.66259766 C-288.21716406 119.02132789 -279.37723172 72.47921121 -253.96875 34.69921875 C-249.53125386 28.25243678 -244.78986819 22.25531043 -239.4375 16.53125 C-237.60054251 14.55512907 -235.89688835 12.52295379 -234.1875 10.4375 C-210.70547847 -16.26123681 -175.58606796 -31.90045384 -141.375 -38.6875 C-140.18777344 -38.93371094 -139.00054687 -39.17992188 -137.77734375 -39.43359375 C-89.60116865 -47.60382228 -36.38791149 -32.67146321 0 0 Z " fill="#FEFEFE" transform="translate(303.375,61.6875)"/>
<path d="M0 0 C1.19109375 1.11375 1.19109375 1.11375 2.40625 2.25 C4.38237093 4.08695749 6.41454621 5.79061165 8.5 7.5 C35.33431009 31.10126068 50.67239481 65.98760307 57.625 100.3125 C57.8725 101.50230469 58.12 102.69210938 58.375 103.91796875 C65.80881946 147.95302428 53.54565287 192.93916051 28.625 229.3125 C27.63626015 230.65420462 26.64133954 231.99157921 25.625 233.3125 C27.27846854 237.60136537 30.50941173 240.4536511 33.71626282 243.61062622 C34.66296027 244.55459521 34.66296027 244.55459521 35.62878293 245.51763427 C37.74824144 247.62866837 39.87474593 249.73246121 42.0012207 251.83642578 C43.52094142 253.34739811 45.04018656 254.85884891 46.55899048 256.3707428 C49.83299079 259.62824047 53.1099193 262.88275406 56.38900185 266.13513565 C61.57662131 271.28141814 66.75502567 276.43690496 71.9316864 281.59420776 C86.65440977 296.2593342 101.38697099 310.91452676 116.13452148 325.5546875 C124.27754571 333.63857332 132.41153834 341.7314355 140.53579015 349.83418834 C145.6759175 354.95969678 150.82691613 360.07393878 155.98624194 365.18011785 C159.2001285 368.36619394 162.40341135 371.56276854 165.60382462 374.76237297 C167.08571425 376.23970747 168.57188353 377.71276397 170.06270027 379.1810894 C186.1493018 395.03483311 186.1493018 395.03483311 188.25390625 405.4140625 C188.06756628 412.49498137 186.922145 417.80440023 181.9765625 423.06640625 C177.27388572 427.32756534 172.88863707 429.5880069 166.4375 429.75 C165.57769531 429.78996094 164.71789062 429.82992188 163.83203125 429.87109375 C151.4393567 427.71256457 143.49467946 417.85810166 135.07763672 409.33276367 C133.53045814 407.78417324 131.98217478 406.23668591 130.43287659 404.69021606 C126.24671466 400.5054843 122.07611136 396.30555466 117.90819311 392.1026628 C113.54365773 387.70679799 109.16488817 383.3251584 104.78762817 378.94197083 C96.50826136 370.64708503 88.24171912 362.33954023 79.97974217 354.02733737 C70.57021069 344.56144865 61.14601909 335.11021911 51.72081733 325.65993536 C32.33966979 306.22657366 12.97644098 286.77544004 -6.375 267.3125 C-9.90014946 268.6700042 -12.66482778 270.10396919 -15.6875 272.375 C-33.92906135 285.32409068 -54.55263362 293.64886734 -76.375 298.3125 C-77.13119629 298.47621094 -77.88739258 298.63992188 -78.66650391 298.80859375 C-121.67018584 307.6825149 -168.08369984 298.38687219 -204.71826172 274.42431641 C-243.39369255 248.46971693 -270.63903924 209.56306386 -279.8034668 163.66259766 C-288.21716406 119.02132789 -279.37723172 72.47921121 -253.96875 34.69921875 C-249.53125386 28.25243678 -244.78986819 22.25531043 -239.4375 16.53125 C-237.60054251 14.55512907 -235.89688835 12.52295379 -234.1875 10.4375 C-210.70547847 -16.26123681 -175.58606796 -31.90045384 -141.375 -38.6875 C-140.18777344 -38.93371094 -139.00054687 -39.17992188 -137.77734375 -39.43359375 C-89.60116865 -47.60382228 -36.38791149 -32.67146321 0 0 Z M-201.375 39.3125 C-202.16390625 40.03953125 -202.9528125 40.7665625 -203.765625 41.515625 C-224.51447591 61.10370104 -238.22940887 91.70320983 -239.50097656 120.12866211 C-239.83528121 133.51883289 -239.77487115 146.28880002 -236.375 159.3125 C-236.20871094 159.98506836 -236.04242188 160.65763672 -235.87109375 161.35058594 C-230.14504457 184.26538643 -218.80760251 203.49096015 -202.375 220.3125 C-201.64796875 221.10140625 -200.9209375 221.8903125 -200.171875 222.703125 C-179.92776861 244.14688214 -149.13542971 257.15910069 -119.87133789 258.42041016 C-83.69204806 259.28812053 -50.33439507 248.6921343 -23.5859375 223.8359375 C0.83378165 200.52078151 15.98385738 169.28838854 16.79296875 135.26953125 C17.12140326 98.53077601 5.41130112 66.70912778 -20.375 40.3125 C-21.10203125 39.52359375 -21.8290625 38.7346875 -22.578125 37.921875 C-42.05013434 17.29596881 -71.91884879 4.00652177 -100.12890625 2.40234375 C-101.20011719 2.37269531 -102.27132812 2.34304687 -103.375 2.3125 C-104.07737793 2.29203613 -104.77975586 2.27157227 -105.50341797 2.25048828 C-142.41882779 1.31699516 -174.94448824 13.49309834 -201.375 39.3125 Z " fill="#CCCCCC" transform="translate(303.375,61.6875)"/>
<path d="M0 0 C0.66 0.33 1.32 0.66 2 1 C-5.59 8.59 -13.18 16.18 -21 24 C-21 20.55976047 -20.6780229 20.27885862 -18.4375 17.890625 C-17.8911792 17.30361816 -17.3448584 16.71661133 -16.78198242 16.11181641 C-16.19392822 15.49741699 -15.60587402 14.88301758 -15 14.25 C-14.11501831 13.31099854 -14.11501831 13.31099854 -13.2121582 12.35302734 C-9.03458654 7.96477863 -4.72746672 3.79911223 0 0 Z " fill="#DADADA" transform="translate(82,60)"/>
</svg>
