<?xml version="1.0" encoding="UTF-8"?>
<!DOCTYPE svg PUBLIC "-//W3C//DTD SVG 1.1//EN" "http://www.w3.org/Graphics/SVG/1.1/DTD/svg11.dtd">
<svg xmlns="http://www.w3.org/2000/svg" version="1.1" width="32px" height="32px" style="shape-rendering:geometricPrecision; text-rendering:geometricPrecision; image-rendering:optimizeQuality; fill-rule:evenodd; clip-rule:evenodd" xmlns:xlink="http://www.w3.org/1999/xlink">
<g><path style="opacity:0.722" fill="#f5c258" d="M 13.5,-0.5 C 14.8333,-0.5 16.1667,-0.5 17.5,-0.5C 17.5,1.16667 17.5,2.83333 17.5,4.5C 16.1667,4.5 14.8333,4.5 13.5,4.5C 13.5,2.83333 13.5,1.16667 13.5,-0.5 Z"/></g>
<g><path style="opacity:0.765" fill="#f5c258" d="M 8.5,8.5 C 5.16667,8.5 3.5,6.83333 3.5,3.5C 6.83333,3.5 8.5,5.16667 8.5,8.5 Z"/></g>
<g><path style="opacity:0.768" fill="#f5c358" d="M 22.5,8.5 C 22.5,5.16667 24.1667,3.5 27.5,3.5C 27.5,6.83333 25.8333,8.5 22.5,8.5 Z"/></g>
<g><path style="opacity:0.946" fill="#fcd361" d="M 19.5,6.5 C 21.6209,14.2549 19.2875,20.2549 12.5,24.5C 10.9382,24.2671 9.60486,23.6005 8.5,22.5C 4.5,17.8333 4.5,13.1667 8.5,8.5C 11.7931,5.75987 15.4597,5.0932 19.5,6.5 Z"/></g>
<g><path style="opacity:0.998" fill="#f7c459" d="M 19.5,6.5 C 20.5,7.16667 21.5,7.83333 22.5,8.5C 26.5,13.1667 26.5,17.8333 22.5,22.5C 19.4953,25.0628 16.162,25.7294 12.5,24.5C 19.2875,20.2549 21.6209,14.2549 19.5,6.5 Z"/></g>
<g><path style="opacity:0.715" fill="#f5c257" d="M -0.5,13.5 C 1.16667,13.5 2.83333,13.5 4.5,13.5C 4.5,14.8333 4.5,16.1667 4.5,17.5C 2.83333,17.5 1.16667,17.5 -0.5,17.5C -0.5,16.1667 -0.5,14.8333 -0.5,13.5 Z"/></g>
<g><path style="opacity:0.755" fill="#f5c257" d="M 31.5,13.5 C 31.5,14.8333 31.5,16.1667 31.5,17.5C 29.8333,17.5 28.1667,17.5 26.5,17.5C 26.5,16.1667 26.5,14.8333 26.5,13.5C 28.1667,13.5 29.8333,13.5 31.5,13.5 Z"/></g>
<g><path style="opacity:0.739" fill="#f5c358" d="M 8.5,22.5 C 8.5,25.8333 6.83333,27.5 3.5,27.5C 3.5,24.1667 5.16667,22.5 8.5,22.5 Z"/></g>
<g><path style="opacity:0.736" fill="#f5c358" d="M 22.5,22.5 C 25.8333,22.5 27.5,24.1667 27.5,27.5C 24.1667,27.5 22.5,25.8333 22.5,22.5 Z"/></g>
<g><path style="opacity:0.797" fill="#f5c257" d="M 17.5,31.5 C 16.1667,31.5 14.8333,31.5 13.5,31.5C 13.5,29.8333 13.5,28.1667 13.5,26.5C 14.8333,26.5 16.1667,26.5 17.5,26.5C 17.5,28.1667 17.5,29.8333 17.5,31.5 Z"/></g>
</svg>
