<?xml version="1.0" encoding="UTF-8"?>
<!DOCTYPE svg PUBLIC "-//W3C//DTD SVG 1.1//EN" "http://www.w3.org/Graphics/SVG/1.1/DTD/svg11.dtd">
<svg xmlns="http://www.w3.org/2000/svg" version="1.1" width="16px" height="16px" style="shape-rendering:geometricPrecision; text-rendering:geometricPrecision; image-rendering:optimizeQuality; fill-rule:evenodd; clip-rule:evenodd" xmlns:xlink="http://www.w3.org/1999/xlink">
<g><path style="opacity:0.369" fill="#000000" d="M 5.5,-0.5 C 6.83333,-0.5 8.16667,-0.5 9.5,-0.5C 9.33591,2.1873 9.50258,4.85397 10,7.5C 11.4875,5.16954 13.3209,4.83621 15.5,6.5C 15.5,8.16667 15.5,9.83333 15.5,11.5C 13.9139,12.4132 12.4139,12.4132 11,11.5C 10.51,12.7932 10.3433,14.1266 10.5,15.5C 8.5,15.5 6.5,15.5 4.5,15.5C 4.87687,12.4752 5.04354,9.47521 5,6.5C 3.67986,9.09353 1.84653,9.7602 -0.5,8.5C -0.5,7.5 -0.5,6.5 -0.5,5.5C 0.833333,5.16667 0.833333,4.83333 -0.5,4.5C -0.5,4.16667 -0.5,3.83333 -0.5,3.5C 2.17566,1.75212 4.00899,2.41879 5,5.5C 5.49546,3.5273 5.66212,1.5273 5.5,-0.5 Z"/></g>
</svg>
