<?xml version="1.0" encoding="UTF-8"?>
<svg version="1.1" xmlns="http://www.w3.org/2000/svg" width="16" height="16">
<path d="M0 0 C1.99954746 -0.04254356 4.00041636 -0.04080783 6 0 C6.33 0.33 6.66 0.66 7 1 C6.95875 1.78375 6.9175 2.5675 6.875 3.375 C6.70024243 6.04282251 6.70024243 6.04282251 8.5 7.4375 C10 9 10 9 10.25 12.125 C10 15 10 15 9 16 C7.00200428 16.09873816 5.00042842 16.12971799 3 16.125 C1.906875 16.12757812 0.81375 16.13015625 -0.3125 16.1328125 C-3 16 -3 16 -4 15 C-4.1875 12.0625 -4.1875 12.0625 -4 9 C-3.34 8.34 -2.68 7.68 -2 7 C-1.28072705 4.68234271 -0.6090107 2.34904126 0 0 Z M1 2 C1 3.32 1 4.64 1 6 C2.32 5.67 3.64 5.34 5 5 C5 4.01 5 3.02 5 2 C3.68 2 2.36 2 1 2 Z M-1 9 C-1.38218767 10.65614657 -1.71395102 12.32457024 -2 14 C-1.01732141 15.20561184 -1.01732141 15.20561184 0.84765625 15.09765625 C2.8984375 15.06510417 4.94921875 15.03255208 7 15 C7.33 13.35 7.66 11.7 8 10 C5.04335481 8.5216774 2.25770263 8.93967217 -1 9 Z " fill="#000000" transform="translate(5,0)"/>
</svg>
