<?xml version="1.0" encoding="UTF-8"?>
<!DOCTYPE svg PUBLIC "-//W3C//DTD SVG 1.1//EN" "http://www.w3.org/Graphics/SVG/1.1/DTD/svg11.dtd">
<svg xmlns="http://www.w3.org/2000/svg" version="1.1" width="16px" height="16px" style="shape-rendering:geometricPrecision; text-rendering:geometricPrecision; image-rendering:optimizeQuality; fill-rule:evenodd; clip-rule:evenodd" xmlns:xlink="http://www.w3.org/1999/xlink">
<g><path style="opacity:1" fill="#48b2cd" d="M 1.5,-0.5 C 2.16667,-0.5 2.83333,-0.5 3.5,-0.5C 3.5,-0.166667 3.5,0.166667 3.5,0.5C 3.5,1.83333 3.5,3.16667 3.5,4.5C 1.82351,3.81658 1.15684,2.48324 1.5,0.5C 1.5,0.166667 1.5,-0.166667 1.5,-0.5 Z"/></g>
<g><path style="opacity:0.152" fill="#010101" d="M 12.5,1.5 C 13.5,1.5 14.5,1.5 15.5,1.5C 15.5,3.83333 15.5,6.16667 15.5,8.5C 14.5084,8.32842 13.8417,8.66175 13.5,9.5C 12.5269,7.0521 12.1936,4.38544 12.5,1.5 Z"/></g>
<g><path style="opacity:0.698" fill="#2e3d42" d="M 3.5,0.5 C 5.97259,0.0882357 7.30592,1.08824 7.5,3.5C 5.80491,2.17357 4.47157,2.50691 3.5,4.5C 3.5,3.16667 3.5,1.83333 3.5,0.5 Z"/></g>
<g><path style="opacity:1" fill="#b7e6f6" d="M 7.5,3.5 C 7.91951,5.09362 8.58618,6.59362 9.5,8C 8.85242,9.43975 8.51909,10.9397 8.5,12.5C 8.20894,13.6491 7.37561,14.3158 6,14.5C 4.46718,14.2272 2.96718,13.8938 1.5,13.5C 1.20695,10.2457 1.87361,7.24571 3.5,4.5C 4.47157,2.50691 5.80491,2.17357 7.5,3.5 Z"/></g>
<g><path style="opacity:1" fill="#7b7372" d="M 9.5,-0.5 C 10.5,-0.5 11.5,-0.5 12.5,-0.5C 12.5,0.166667 12.5,0.833333 12.5,1.5C 12.1936,4.38544 12.5269,7.0521 13.5,9.5C 14.8333,10.8333 14.8333,12.1667 13.5,13.5C 11.7085,13.634 10.0418,13.3007 8.5,12.5C 8.51909,10.9397 8.85242,9.43975 9.5,8C 8.58618,6.59362 7.91951,5.09362 7.5,3.5C 8.11742,3.61071 8.61742,3.94404 9,4.5C 9.49351,2.86586 9.66018,1.19919 9.5,-0.5 Z"/></g>
<g><path style="opacity:0.961" fill="#304f57" d="M 1.5,0.5 C 1.15684,2.48324 1.82351,3.81658 3.5,4.5C 1.87361,7.24571 1.20695,10.2457 1.5,13.5C 0.833333,13.1667 0.166667,12.8333 -0.5,12.5C -0.5,11.1667 -0.5,9.83333 -0.5,8.5C 1.78132,6.96778 1.78132,5.63445 -0.5,4.5C -0.5,3.5 -0.5,2.5 -0.5,1.5C 0.166667,1.16667 0.833333,0.833333 1.5,0.5 Z"/></g>
<g><path style="opacity:0.953" fill="#465c63" d="M 8.5,12.5 C 10.0418,13.3007 11.7085,13.634 13.5,13.5C 12.1667,14.1667 10.8333,14.8333 9.5,15.5C 7.16667,15.5 4.83333,15.5 2.5,15.5C 2.16667,14.8333 1.83333,14.1667 1.5,13.5C 2.96718,13.8938 4.46718,14.2272 6,14.5C 7.37561,14.3158 8.20894,13.6491 8.5,12.5 Z"/></g>
</svg>
