<?xml version="1.0" encoding="UTF-8"?>
<!DOCTYPE svg PUBLIC "-//W3C//DTD SVG 1.1//EN" "http://www.w3.org/Graphics/SVG/1.1/DTD/svg11.dtd">
<svg xmlns="http://www.w3.org/2000/svg" version="1.1" width="16px" height="16px" style="shape-rendering:geometricPrecision; text-rendering:geometricPrecision; image-rendering:optimizeQuality; fill-rule:evenodd; clip-rule:evenodd" xmlns:xlink="http://www.w3.org/1999/xlink">
<g><path style="opacity:0.485" fill="#000000" d="M 2.5,-0.5 C 4.5,-0.5 6.5,-0.5 8.5,-0.5C 8.34332,0.873441 8.50999,2.20677 9,3.5C 10.8976,1.31619 13.0642,0.982858 15.5,2.5C 15.5,4.16667 15.5,5.83333 15.5,7.5C 14.234,8.0899 12.9007,8.5899 11.5,9C 13.6838,10.8976 14.0171,13.0642 12.5,15.5C 10.8333,15.5 9.16667,15.5 7.5,15.5C 6.76589,14.2921 6.43255,12.9587 6.5,11.5C 4.16667,11.5 1.83333,11.5 -0.5,11.5C -0.5,10.5 -0.5,9.5 -0.5,8.5C 2.16667,7.83333 2.16667,7.16667 -0.5,6.5C -0.5,5.5 -0.5,4.5 -0.5,3.5C 1.44563,2.96528 2.44563,1.63195 2.5,-0.5 Z M 4.5,1.5 C 6.33702,1.63945 6.67036,2.30612 5.5,3.5C 4.70245,3.04311 4.36912,2.37644 4.5,1.5 Z M 11.5,3.5 C 14.3002,5.47557 13.9669,6.3089 10.5,6C 11.2524,5.32924 11.5858,4.4959 11.5,3.5 Z M 8.5,11.5 C 11.7973,11.3287 12.1306,11.9954 9.5,13.5C 8.70245,13.0431 8.36912,12.3764 8.5,11.5 Z"/></g>
</svg>
