<?xml version="1.0" encoding="UTF-8"?>
<!DOCTYPE svg PUBLIC "-//W3C//DTD SVG 1.1//EN" "http://www.w3.org/Graphics/SVG/1.1/DTD/svg11.dtd">
<svg xmlns="http://www.w3.org/2000/svg" version="1.1" width="32px" height="32px" style="shape-rendering:geometricPrecision; text-rendering:geometricPrecision; image-rendering:optimizeQuality; fill-rule:evenodd; clip-rule:evenodd" xmlns:xlink="http://www.w3.org/1999/xlink">
<g><path style="opacity:0.65" fill="#000000" d="M 7.5,-0.5 C 10.1667,-0.5 12.8333,-0.5 15.5,-0.5C 19.3509,3.35447 19.3509,7.18781 15.5,11C 10.2919,12.3967 4.95856,12.8967 -0.5,12.5C -0.5,11.1667 -0.5,9.83333 -0.5,8.5C 4.42998,8.80251 9.26331,8.46918 14,7.5C 12.7902,1.01286 10.6236,0.846192 7.5,7C 4.90852,7.30077 4.07519,6.1341 5,3.5C 5.66218,2.01608 6.49551,0.682751 7.5,-0.5 Z"/></g>
<g><path style="opacity:0.646" fill="#000000" d="M 31.5,6.5 C 31.5,9.16667 31.5,11.8333 31.5,14.5C 30.3172,15.5045 28.9839,16.3378 27.5,17C 19.8406,17.4997 12.1739,17.6664 4.5,17.5C 4.5,16.1667 4.5,14.8333 4.5,13.5C 12.1955,13.8308 19.8622,13.4975 27.5,12.5C 28.8002,9.92876 27.9669,8.26209 25,7.5C 23.1327,8.37673 21.966,9.87673 21.5,12C 19.7627,12.6123 18.7627,11.9457 18.5,10C 21.4447,3.40477 25.778,2.2381 31.5,6.5 Z"/></g>
<g><path style="opacity:0.647" fill="#000000" d="M -0.5,18.5 C 7.94335,18.0619 16.2767,18.5619 24.5,20C 28.3509,23.8122 28.3509,27.6455 24.5,31.5C 21.8333,31.5 19.1667,31.5 16.5,31.5C 14.5159,29.5403 13.6826,27.207 14,24.5C 14.7175,23.5494 15.5509,23.3828 16.5,24C 17.6935,28.1987 19.8601,29.0321 23,26.5C 23.6838,25.2161 23.5171,24.0495 22.5,23C 14.8406,22.5003 7.1739,22.3336 -0.5,22.5C -0.5,21.1667 -0.5,19.8333 -0.5,18.5 Z"/></g>
</svg>
